<?xml version="1.0" encoding="utf-8"?>
<!-- Generator: Adobe Illustrator 25.0.1, SVG Export Plug-In . SVG Version: 6.00 Build 0)  -->
<svg version="1.1" id="Layer_1" xmlns="http://www.w3.org/2000/svg" xmlns:xlink="http://www.w3.org/1999/xlink" x="0px" y="0px"
	 viewBox="0 0 81.794 102" enable-background="new 0 0 81.794 102" xml:space="preserve">
<g>
	<path fill="#045424" d="M78.884,55.478c-3.648-10.481-11.615-17.811-21.113-21.035c0,0-1.49,3.23-2.242,5.081
		c-0.898,2.21-1.955,6.429-1.955,6.429c6.337,2.143,11.629,7.068,13.871,13.507c3.917,11.254-2.023,23.544-13.277,27.789v12.912
		c1.206-0.275,2.41-0.615,3.607-1.032C75.637,92.911,85.101,73.339,78.884,55.478z"/>
	<path fill="#8EC540" d="M53.613,87.457C41.91,91.53,29.631,85.446,25.589,73.831c-1.623-4.663-1.406-10.559,0.593-15.3l1.032-2.136
		l-11.9-4.145c-3.64,7.68-4.201,16.556-1.138,25.355c5.803,16.671,23.114,26.408,39.991,22.554V87.248
		C53.983,87.318,53.801,87.391,53.613,87.457z"/>
	<g>
		<path fill="#045424" d="M44.035,44.917c0.961-0.11,1.917-0.134,2.869-0.116c0.077-0.201,0.153-0.403,0.232-0.597
			c2.256-5.589,5.461-9.216,7.032-10.772c-5.166-1.15-10.659-1.129-16.075,0.19c0.42,5.589,1.391,10.693,2.571,15.157h4.715
			L44.035,44.917z"/>
		<path fill="#045424" d="M44.926,61.133c-0.494-4.529-0.132-8.497,0.628-11.852l-0.174-0.501h-4.715
			c0.432,1.634,0.89,3.189,1.362,4.642C42.934,56.216,43.925,58.797,44.926,61.133z"/>
	</g>
	<path fill="#8EC540" d="M58.036,85.363c0,0-15.466-24.355-1.86-51.5c0,0-18.308,15.116-4.914,42.417
		c0,0-25.334-34.165-10.397-75.28c0,0-31.929,39.382,14.607,85.881L58.036,85.363z"/>
	<path fill="#045424" d="M7.65,49.591c0,0,15.504-2.976,26.848,15.651C34.498,65.243,20.923,53.089,7.65,49.591z"/>
	<path fill="#045424" d="M55.224,86.827c0,0-19.851-35.81-54.224-21.839c32.909-3.795,51.996,22.673,51.996,22.673L55.224,86.827z"
		/>
	<path fill="#8EC540" d="M25.813,41.536c0,0-8.901-2.161-3.157-15.089c0,0,10.808,7.022,5.166,14.415c0,0-0.522-4.563-3.232-7.705
		L25.813,41.536z"/>
	<path fill="#8EC540" d="M15.043,48.144c0,0-7.872,1.103-7.373-11.163c0,0,10.965,2.209,8.778,9.978c0,0-1.881-3.515-5.071-5.183
		L15.043,48.144z"/>
	<path fill="#045424" d="M22.383,51.175c0,0-7.463-1.601-2.966-12.499c0,0,9.159,5.609,4.624,11.893c0,0-0.537-3.79-2.864-6.347
		L22.383,51.175z"/>
	<path fill="#045424" d="M29.889,55.738c0,0-5.586-1.322-2.503-9.618c0,0,6.943,4.415,3.722,9.175c0,0-0.489-2.912-2.28-4.901
		L29.889,55.738z"/>
</g>
</svg>
